<?xml version="1.0" encoding="UTF-8"?>
<!DOCTYPE svg PUBLIC "-//W3C//DTD SVG 1.1//EN" "http://www.w3.org/Graphics/SVG/1.1/DTD/svg11.dtd">
<svg xmlns="http://www.w3.org/2000/svg" version="1.1" width="1320px" height="1304px" style="shape-rendering:geometricPrecision; text-rendering:geometricPrecision; image-rendering:optimizeQuality; fill-rule:evenodd; clip-rule:evenodd" xmlns:xlink="http://www.w3.org/1999/xlink">
<g><path style="opacity:0.979" fill="#faa734" d="M 656.5,-0.5 C 657.833,-0.5 659.167,-0.5 660.5,-0.5C 705.671,44.1713 750.338,89.338 794.5,135C 793.403,137.433 791.903,139.6 790,141.5C 753.347,177.653 716.847,213.986 680.5,250.5C 679.5,296.162 679.167,341.828 679.5,387.5C 879.833,387.5 1080.17,387.5 1280.5,387.5C 1280.5,367.5 1280.5,347.5 1280.5,327.5C 1293.5,327.5 1306.5,327.5 1319.5,327.5C 1319.5,381.833 1319.5,436.167 1319.5,490.5C 1306.5,490.5 1293.5,490.5 1280.5,490.5C 1280.5,469.5 1280.5,448.5 1280.5,427.5C 1208.17,427.5 1135.83,427.5 1063.5,427.5C 1071.76,441.103 1080.1,454.936 1088.5,469C 1091.44,476.44 1095.44,483.274 1100.5,489.5C 1101.65,493.393 1103.32,497.06 1105.5,500.5C 1120.79,525.566 1135.79,550.899 1150.5,576.5C 1162.71,599.259 1175.71,621.592 1189.5,643.5C 1191.08,645.99 1192.08,648.657 1192.5,651.5C 1209.17,651.5 1225.83,651.5 1242.5,651.5C 1246.01,687.024 1241.35,721.358 1228.5,754.5C 1224.29,761.596 1220.62,768.929 1217.5,776.5C 1211.37,784.28 1205.7,792.28 1200.5,800.5C 1189.59,811.908 1178.26,822.741 1166.5,833C 1160.2,835.824 1154.53,839.658 1149.5,844.5C 1141.93,847.619 1134.6,851.285 1127.5,855.5C 1111.48,860.981 1095.15,865.314 1078.5,868.5C 1042.98,873.011 1008.65,868.678 975.5,855.5C 968.418,851.292 961.085,847.626 953.5,844.5C 948.56,839.689 942.893,835.856 936.5,833C 924.739,822.741 913.405,811.908 902.5,800.5C 897.296,792.276 891.63,784.276 885.5,776.5C 864.502,737.821 856.168,696.488 860.5,652.5C 877.547,652.819 894.547,652.486 911.5,651.5C 943.847,595.401 976.18,539.401 1008.5,483.5C 1009.17,483.167 1009.83,482.833 1010.5,482.5C 1011.61,478.281 1013.28,474.281 1015.5,470.5C 1016.17,470.167 1016.83,469.833 1017.5,469.5C 1024.76,455.248 1032.43,441.248 1040.5,427.5C 920.167,427.5 799.833,427.5 679.5,427.5C 679.167,622.168 679.5,816.834 680.5,1011.5C 784.446,1076.63 888.113,1141.96 991.5,1207.5C 993.481,1237.34 994.148,1267.34 993.5,1297.5C 998.548,1298.16 998.548,1299.49 993.5,1301.5C 986.833,1301.83 980.167,1302.17 973.5,1302.5C 867.01,1301.21 760.51,1300.54 654,1300.5C 547.49,1300.54 440.99,1301.21 334.5,1302.5C 327.833,1302.17 321.167,1301.83 314.5,1301.5C 313.689,1300.78 313.022,1299.95 312.5,1299C 314.475,1268.29 315.142,1237.45 314.5,1206.5C 315.978,1206.76 317.311,1206.43 318.5,1205.5C 328.136,1200.11 337.302,1194.11 346,1187.5C 347.92,1187.06 349.754,1186.4 351.5,1185.5C 370.185,1173.49 388.852,1161.49 407.5,1149.5C 413.138,1146.55 418.805,1143.55 424.5,1140.5C 424.833,1139.83 425.167,1139.17 425.5,1138.5C 433.182,1135.27 440.182,1130.93 446.5,1125.5C 455.236,1121.48 463.236,1116.48 470.5,1110.5C 481.468,1105.02 492.134,1099.02 502.5,1092.5C 509.728,1086.46 517.728,1081.46 526.5,1077.5C 530.508,1072.82 535.508,1069.82 541.5,1068.5C 548.761,1062.44 556.761,1057.44 565.5,1053.5C 589.315,1037.42 613.649,1022.09 638.5,1007.5C 639.5,814.168 639.833,620.834 639.5,427.5C 512.166,427.333 384.833,427.5 257.5,428C 259.681,429.348 261.348,431.182 262.5,433.5C 283.778,471.764 305.445,509.764 327.5,547.5C 331.118,551.065 333.452,555.399 334.5,560.5C 335.167,560.833 335.833,561.167 336.5,561.5C 347.315,581.13 358.649,600.463 370.5,619.5C 373.636,627.614 377.969,634.948 383.5,641.5C 386.553,648.724 389.886,655.724 393.5,662.5C 410.838,661.932 428.171,661.265 445.5,660.5C 448.494,705.541 439.494,747.875 418.5,787.5C 413.453,793.286 409.119,799.619 405.5,806.5C 401.342,808.656 398.675,811.99 397.5,816.5C 391.5,821.167 386.167,826.5 381.5,832.5C 376.309,834.354 372.309,837.687 369.5,842.5C 366.389,844.611 363.055,846.278 359.5,847.5C 357.434,849.717 355.1,851.717 352.5,853.5C 290.344,887.431 227.344,889.098 163.5,858.5C 155.747,854.05 148.08,849.55 140.5,845C 131.5,837.167 122.5,829.333 113.5,821.5C 110.257,816.251 106.257,811.584 101.5,807.5C 70.2981,765.049 56.9648,717.382 61.5,664.5C 78.8131,663.405 96.1464,662.738 113.5,662.5C 117.799,654.375 122.132,646.209 126.5,638C 130.04,632.421 133.707,626.921 137.5,621.5C 138.5,618.833 139.5,616.167 140.5,613.5C 143.925,609.654 146.591,605.321 148.5,600.5C 149.167,600.167 149.833,599.833 150.5,599.5C 151.609,595.281 153.275,591.281 155.5,587.5C 156.167,587.167 156.833,586.833 157.5,586.5C 166.427,571.094 175.094,555.427 183.5,539.5C 203.341,507.155 222.674,474.488 241.5,441.5C 242.507,435.98 245.174,431.48 249.5,428C 179.167,427.5 108.834,427.333 38.5,427.5C 38.5,448.5 38.5,469.5 38.5,490.5C 25.5,490.5 12.5,490.5 -0.5,490.5C -0.5,436.167 -0.5,381.833 -0.5,327.5C 12.5,327.5 25.5,327.5 38.5,327.5C 38.5,347.5 38.5,367.5 38.5,387.5C 238.833,387.5 439.167,387.5 639.5,387.5C 639.833,342.495 639.5,297.495 638.5,252.5C 600.386,213.93 562.053,175.597 523.5,137.5C 522.167,135.833 522.167,134.167 523.5,132.5C 567.881,88.1186 612.215,43.7853 656.5,-0.5 Z M 657.5,57.5 C 660.463,59.7855 663.463,62.1189 666.5,64.5C 689.341,88.5073 712.674,112.007 736.5,135C 710.831,161.176 684.831,187.009 658.5,212.5C 632.16,186.966 606.16,161.133 580.5,135C 606.296,109.189 631.963,83.3555 657.5,57.5 Z M 1052.5,477.5 C 1057.18,485.212 1061.51,493.212 1065.5,501.5C 1070.56,507.726 1074.56,514.56 1077.5,522C 1081.04,527.579 1084.71,533.079 1088.5,538.5C 1089.49,540.772 1090.32,543.105 1091,545.5C 1094.57,549.631 1097.41,554.298 1099.5,559.5C 1100.17,559.833 1100.83,560.167 1101.5,560.5C 1102.55,564.354 1104.05,568.02 1106,571.5C 1111.51,578.524 1116.01,586.19 1119.5,594.5C 1130.65,612.634 1141.65,630.801 1152.5,649C 1085.83,649.667 1019.17,649.667 952.5,649C 956.102,645.803 958.436,641.803 959.5,637C 963.04,631.421 966.707,625.921 970.5,620.5C 971.5,617.833 972.5,615.167 973.5,612.5C 974.167,612.167 974.833,611.833 975.5,611.5C 977.594,606.298 980.428,601.631 984,597.5C 984.897,592.698 987.064,588.698 990.5,585.5C 1011.21,549.408 1031.87,513.408 1052.5,477.5 Z M 254.5,488.5 C 262.689,504.533 271.689,520.2 281.5,535.5C 301.397,571.629 322.064,607.296 343.5,642.5C 345.25,645.499 346.583,648.666 347.5,652C 349.757,654.534 351.757,657.2 353.5,660C 286.833,660.667 220.167,660.667 153.5,660C 154.646,659.355 155.646,658.522 156.5,657.5C 188.592,600.708 221.258,544.375 254.5,488.5 Z M 900.5,685.5 C 1003.5,685.5 1106.5,685.5 1209.5,685.5C 1208.12,695.721 1206.78,706.055 1205.5,716.5C 1186.76,777.906 1146.43,816.906 1084.5,833.5C 1016.5,844.151 961.83,822.151 920.5,767.5C 905.059,743.057 896.059,716.39 893.5,687.5C 896.388,688.01 898.721,687.344 900.5,685.5 Z M 231.5,694.5 C 291.5,694.5 351.5,694.5 411.5,694.5C 409.426,720.81 402.093,745.476 389.5,768.5C 388.522,768.977 387.689,769.643 387,770.5C 384.271,778.006 379.771,784.339 373.5,789.5C 372.985,791.225 372.318,792.892 371.5,794.5C 366.833,797.833 362.833,801.833 359.5,806.5C 357.892,807.318 356.225,807.985 354.5,808.5C 350.81,812.524 346.81,816.191 342.5,819.5C 321.873,832.283 299.54,840.95 275.5,845.5C 205.747,851.622 152.414,825.289 115.5,766.5C 109.406,754.976 104.406,742.976 100.5,730.5C 98.3217,719.147 96.3217,707.814 94.5,696.5C 140.512,697.162 186.179,696.495 231.5,694.5 Z M 638.5,1056.5 C 639.498,1087 639.831,1117.66 639.5,1148.5C 622.181,1156.49 604.848,1164.49 587.5,1172.5C 579.035,1175.06 571.035,1178.73 563.5,1183.5C 532.813,1196.86 502.48,1210.86 472.5,1225.5C 463.406,1228.38 454.74,1232.38 446.5,1237.5C 438.035,1240.06 430.035,1243.73 422.5,1248.5C 399.816,1258.52 377.149,1268.52 354.5,1278.5C 354.5,1262.83 354.5,1247.17 354.5,1231.5C 356.958,1231.77 358.625,1230.77 359.5,1228.5C 370.513,1223 381.18,1217 391.5,1210.5C 398.764,1204.52 406.764,1199.52 415.5,1195.5C 447.35,1175.82 479.016,1155.82 510.5,1135.5C 512.246,1134.6 514.08,1133.94 516,1133.5C 519.424,1130.54 523.257,1128.2 527.5,1126.5C 527.833,1125.83 528.167,1125.17 528.5,1124.5C 544.332,1116.3 559.332,1106.97 573.5,1096.5C 584.468,1091.02 595.134,1085.02 605.5,1078.5C 612.728,1072.46 620.728,1067.46 629.5,1063.5C 632.516,1060.95 635.516,1058.61 638.5,1056.5 Z M 679.5,1060.5 C 692.232,1069.54 705.566,1077.87 719.5,1085.5C 722.1,1087.28 724.434,1089.28 726.5,1091.5C 743.175,1101.51 759.841,1111.51 776.5,1121.5C 781.709,1125.6 787.043,1129.43 792.5,1133C 801.022,1137.87 809.522,1142.7 818,1147.5C 824.85,1153.29 832.35,1157.96 840.5,1161.5C 842.833,1163.5 845.167,1165.5 847.5,1167.5C 880.171,1188.13 913.171,1208.46 946.5,1228.5C 948.05,1230.62 950.05,1232.29 952.5,1233.5C 953.666,1248.49 953.833,1263.49 953,1278.5C 921.995,1263.83 890.828,1249.5 859.5,1235.5C 851.965,1230.73 843.965,1227.06 835.5,1224.5C 783.985,1199.41 731.985,1175.41 679.5,1152.5C 679.5,1121.83 679.5,1091.17 679.5,1060.5 Z M 634.5,1186.5 C 636.167,1186.5 637.833,1186.5 639.5,1186.5C 639.5,1213.5 639.5,1240.5 639.5,1267.5C 580.499,1267.67 521.499,1267.5 462.5,1267C 473.276,1263.33 483.609,1258.5 493.5,1252.5C 501.965,1249.94 509.965,1246.27 517.5,1241.5C 542.404,1230.35 567.404,1219.35 592.5,1208.5C 599.989,1203.61 607.989,1199.94 616.5,1197.5C 622.962,1194.28 628.962,1190.62 634.5,1186.5 Z M 679.5,1190.5 C 722.22,1209.36 764.554,1229.03 806.5,1249.5C 815.011,1251.94 823.011,1255.61 830.5,1260.5C 836.246,1262.52 841.912,1264.68 847.5,1267C 791.501,1267.5 735.501,1267.67 679.5,1267.5C 679.5,1241.83 679.5,1216.17 679.5,1190.5 Z"/></g>
</svg>
